<?xml version="1.0" encoding="utf-8"?>
<!-- Svg Vector Icons : http://www.onlinewebfonts.com/icon -->
<!DOCTYPE svg PUBLIC "-//W3C//DTD SVG 1.1//EN" "http://www.w3.org/Graphics/SVG/1.1/DTD/svg11.dtd">
<svg version="1.1" xmlns="http://www.w3.org/2000/svg" xmlns:xlink="http://www.w3.org/1999/xlink" x="0px" y="0px" viewBox="0 0 256 256" enable-background="new 0 0 256 256" xml:space="preserve">
<metadata> Svg Vector Icons : http://www.onlinewebfonts.com/icon </metadata>
<g><g><path stroke-width="12" fill-opacity="0" stroke="#000000"  d="M246,60.6c0,4.6-3.8,8.4-8.4,8.4H18.4c-4.6,0-8.4-3.8-8.4-8.4V43.7c0-4.6,3.8-8.4,8.4-8.4h219.1c4.6,0,8.4,3.8,8.4,8.4V60.6z M246,111.1c0,4.6-3.8,8.4-8.4,8.4H18.4c-4.6,0-8.4-3.8-8.4-8.4V94.3c0-4.6,3.8-8.4,8.4-8.4h219.1c4.6,0,8.4,3.8,8.4,8.4V111.1z M246,161.7c0,4.6-3.8,8.4-8.4,8.4H18.4c-4.6,0-8.4-3.8-8.4-8.4v-16.9c0-4.6,3.8-8.4,8.4-8.4h219.1c4.6,0,8.4,3.8,8.4,8.4V161.7z M246,212.3c0,4.6-3.8,8.4-8.4,8.4H18.4c-4.6,0-8.4-3.8-8.4-8.4v-16.9c0-4.6,3.8-8.4,8.4-8.4h219.1c4.6,0,8.4,3.8,8.4,8.4V212.3z"/></g></g>
</svg>